<svg height="512" width="512" xmlns="http://www.w3.org/2000/svg"><path d="m0 107.7220001h73.5117493c7.7081909 0 13.0353088 1.1938782 17.4066391 9.328949l28.0440445 48.8353119-42.5495758 73.4947357zm157.8041687 273.494339c10.6023712 17.9993896 26.5059357 23.1783447 40.6835327 23.1783447h38.2566223l43.7596741-75.1678162h-67.0511017l-41.9951782-71.9917297 85.754837-149.5135193h-86.1077271l-85.754837 148.454834s61.8518067 107.0404969 72.4541779 125.0398865zm140.3760681-198.0942535 42.7210388 72.785141-85.6129608 148.4877624h86.2717133l84.7832947-148.4877625s-52.0557251-89.8311615-69.2808228-119.7632751c-11.6084595-20.1720581-23.2168884-28.4223404-45.6004028-28.4223404-3.7182007 0-36.3058472 0-36.3058472 0l-42.59552 74.8780899zm94.5039063 163.2272796s22.2633057 39.0150757 27.0559692 46.4750977c4.7926941 7.4599915 6.8250122 11.5705261 15.7618713 11.5705261h76.4980164l-76.4440002-132.7228088z"/></svg>