<svg xmlns="http://www.w3.org/2000/svg" width="1728" height="1117" fill="none">
  <g clip-path="url(#a)">
    <path fill="#000" d="M1267.38 561.858c0 217.31-176.16 393.474-393.474 393.474-217.31 0-393.474-176.164-393.474-393.474s176.164-393.474 393.474-393.474c217.314 0 393.474 176.164 393.474 393.474Z"/>
    <path fill="#fff" d="M874.855 729.49c-50.175-17.737-88.297-42.165-114.364-73.283-25.319-30.854-41.977-68.335-49.975-112.442-7.248-43.843-9.844-94.887-7.789-153.133l16.742-447.745c1.255-41.68 13.519-73.991 36.794-96.935 24.288-23.427 56.258-34.03 95.91-31.807 36.393 1.912 65.554 14.748 87.483 38.506 22.195 23.01 32.336 52.711 30.424 89.103l-14.95 431.951c-2.094 46.438 4.08 80.213 18.521 101.324 15.455 20.627 36.109 31.3 61.979 32.018 26.34 1.731 46.46-6.322 60.35-24.159 14.15-18.586 23.4-50.701 27.74-96.345 9.24-80.976 18.42-143.866 27.52-188.67 9.09-44.804 18.01-79.563 26.75-104.276 14.82-41.937 38.76-73.912 71.82-95.926 34.07-22.497 75.06-25.275 122.99-8.333 47.18 16.678 75.83 44.075 85.94 82.191 11.13 37.632 9.29 77.417-5.54 119.354-8.74 24.713-21.11 48.984-37.11 72.812-16.01 23.829-33.4 48.009-52.18 72.54l-206.79 266.833c-27.78 35.674-55.33 65.951-82.66 90.832-26.31 24.395-55.49 40.198-87.524 47.408-31.286 7.475-68.646 3.536-112.081-11.818Z"/>
    <path fill="#fff" d="M770.162 931.504c-34.419 0-61.61-10.326-81.574-30.978-19.963-21.34-30.633-48.875-32.009-82.606-2.754-58.513-17.554-99.816-44.401-123.91-26.159-24.782-61.267-37.173-105.323-37.173h-20.652V822.05c0 35.796-9.637 62.988-28.912 81.574s-44.745 27.88-76.411 27.88c-33.731 0-60.234-9.294-79.509-27.88s-28.912-45.778-28.912-81.574V676.456c0-72.968 10.67-128.384 32.01-166.245 22.028-37.861 49.908-65.052 83.639-81.574l-5.163-19.619h-16.521c-31.666 0-56.792-9.981-75.379-29.944-17.898-20.652-27.535-48.532-28.912-83.639-.688-34.42 8.605-62.299 27.88-83.639 19.275-21.34 44.745-32.01 76.411-32.01h263.307c73.658 0 133.203 17.898 178.637 53.694 45.433 35.796 68.15 92.932 68.15 171.408 0 40.615-6.884 74.69-20.652 102.225-13.767 26.848-31.321 47.499-52.661 61.955-21.34 14.456-43.713 23.061-67.118 25.815v13.423c42.68 10.326 77.788 33.043 105.323 68.15 28.224 35.108 42.336 82.263 42.336 141.464 0 37.861-10.326 66.429-30.977 85.704-19.964 18.586-47.499 27.88-82.607 27.88ZM481.04 498.853c0 15.144 2.754 25.126 8.261 29.945 5.507 4.818 15.833 7.228 30.977 7.228h97.063c28.912 0 49.908-6.54 62.987-19.619 13.079-13.08 19.619-31.322 19.619-54.727 0-24.094-6.54-42.68-19.619-55.759-13.079-13.08-34.075-19.619-62.987-19.619h-97.063c-15.144 0-25.47 2.065-30.977 6.195-5.507 4.13-8.261 14.112-8.261 29.945v76.411Z"/>
  </g>
  <defs>
  </defs>
</svg>
