<svg width="400" height="400" viewBox="0 0 400 400" fill="none" xmlns="http://www.w3.org/2000/svg">
<g clip-path="url(#clip0_189_2)">
<rect width="400" height="400" fill="white"/>
<mask id="mask0_189_2" style="mask-type:alpha" maskUnits="userSpaceOnUse" x="3" y="3" width="397" height="397">
<circle cx="201.849" cy="201.849" r="198.151" fill="#D22828"/>
</mask>
<g mask="url(#mask0_189_2)">
<path d="M202.327 286.267C177.059 277.335 157.862 265.033 144.734 249.362C131.984 233.824 123.595 214.949 119.567 192.737C115.917 170.658 114.61 144.953 115.645 115.621L124.076 -109.861C124.708 -130.85 130.884 -147.122 142.605 -158.676C154.836 -170.474 170.936 -175.814 190.905 -174.695C209.232 -173.731 223.917 -167.268 234.961 -155.303C246.138 -143.715 251.245 -128.758 250.282 -110.431L242.753 107.096C241.699 130.482 244.808 147.491 252.08 158.122C259.863 168.51 270.267 173.885 283.291 174.246C296.559 175.118 306.69 171.063 313.683 162.08C320.81 152.72 325.466 136.547 327.652 113.562C332.31 72.7823 336.929 41.1112 341.511 18.5482C346.093 -4.01471 350.583 -21.5188 354.983 -33.9641C362.448 -55.0835 374.504 -71.186 391.151 -82.2719C408.308 -93.6015 428.954 -95.0003 453.091 -86.4683C476.85 -78.0695 491.276 -64.2726 496.37 -45.0774C501.974 -26.1261 501.044 -6.09079 493.578 15.0285C489.179 27.4738 482.949 39.6964 474.889 51.6961C466.829 63.6959 458.07 75.8728 448.611 88.2269L344.473 222.602C330.485 240.567 316.61 255.815 302.848 268.344C289.595 280.63 274.903 288.588 258.77 292.219C243.015 295.983 224.201 293.999 202.327 286.267Z" fill="#020202"/>
<path d="M149.605 388C132.271 388 118.578 382.8 108.525 372.4C98.4713 361.653 93.0979 347.787 92.4046 330.8C91.018 301.333 83.5646 280.533 70.0446 268.4C56.8713 255.92 39.1913 249.68 17.0046 249.68H6.60462V332.88C6.60462 350.907 1.75128 364.6 -7.95539 373.96C-17.6621 383.32 -30.4887 388 -46.4354 388C-63.4221 388 -76.7687 383.32 -86.4754 373.96C-96.1821 364.6 -101.035 350.907 -101.035 332.88V259.56C-101.035 222.813 -95.6621 194.907 -84.9154 175.84C-73.8221 156.773 -59.7821 143.08 -42.7954 134.76L-45.3954 124.88H-53.7154C-69.6621 124.88 -82.3154 119.853 -91.6754 109.8C-100.689 99.4 -105.542 85.36 -106.235 67.68C-106.582 50.3467 -101.902 36.3067 -92.1954 25.56C-82.4887 14.8133 -69.6621 9.43998 -53.7154 9.43998H78.8846C115.978 9.43998 145.965 18.4533 168.845 36.48C191.725 54.5067 203.165 83.28 203.165 122.8C203.165 143.253 199.698 160.413 192.765 174.28C185.831 187.8 176.991 198.2 166.245 205.48C155.498 212.76 144.231 217.093 132.445 218.48V225.24C153.938 230.44 171.618 241.88 185.485 259.56C199.698 277.24 206.805 300.987 206.805 330.8C206.805 349.867 201.605 364.253 191.205 373.96C181.151 383.32 167.285 388 149.605 388ZM4.00461 170.12C4.00461 177.747 5.39128 182.773 8.16461 185.2C10.938 187.627 16.138 188.84 23.7646 188.84H72.6446C87.2046 188.84 97.778 185.547 104.365 178.96C110.951 172.373 114.245 163.187 114.245 151.4C114.245 139.267 110.951 129.907 104.365 123.32C97.778 116.733 87.2046 113.44 72.6446 113.44H23.7646C16.138 113.44 10.938 114.48 8.16461 116.56C5.39128 118.64 4.00461 123.667 4.00461 131.64V170.12Z" fill="black"/>
</g>
</g>
<defs>
<clipPath id="clip0_189_2">
<rect width="400" height="400" fill="white"/>
</clipPath>
</defs>
</svg>
